<svg width="226" height="50" viewBox="0 0 226 50" fill="none" xmlns="http://www.w3.org/2000/svg">
<g clip-path="url(#clip0_2019_737)">
<path d="M44.7427 29.2927C48.3791 31.0099 49.9952 34.4442 49.9952 37.5755C49.9952 44.4442 44.4397 49.9998 37.571 49.9998H34.7427H32.0154C30.6013 49.9998 29.1871 49.3937 28.177 48.2826L24.1366 43.7372C23.2275 42.626 21.8134 42.02 20.2983 42.02H5.55078V33.9392H16.2579C17.672 33.9392 19.0861 34.5452 20.0962 35.6563L24.1366 40.2018C25.0457 41.3129 26.4599 41.919 27.975 41.919H34.5407C37.0659 41.919 39.1871 39.6968 38.8841 37.0705C38.6821 34.7473 36.5609 33.1311 34.3387 33.1311H27.571H25.7528C24.3387 33.1311 22.9245 32.525 21.9144 31.4139L17.874 26.8685C16.9649 25.7574 15.5508 25.1513 14.0356 25.1513H5.55078V17.0705H8.37906H10.0962C11.5104 17.0705 12.9245 17.6766 13.9346 18.7877L17.975 23.3331C18.8841 24.4442 20.2983 25.0503 21.8134 25.0503H32.9245C35.2477 25.0503 37.1669 23.0301 36.9649 20.6058C36.7629 18.4846 34.8437 16.9695 32.8235 16.9695H21.7124C20.2983 16.9695 18.8841 16.3634 17.874 15.2523L12.3185 8.88867H35.6518C41.9144 8.88867 47.47 13.5351 48.076 19.7978C48.2781 23.5351 47.0659 26.8685 44.7427 29.2927Z" fill="white"/>
<path d="M8.37879 8.9899L5.34848 6.56566L2.31818 9.09091L3.5303 5.45455L0.5 3.0303H4.13636L5.34848 0L6.56061 3.0303H10.197L7.16667 5.45455L8.37879 8.9899Z" fill="white"/>
<path d="M111.471 46.5C110.175 46.5 109.056 46.218 108.114 45.654C107.178 45.09 106.455 44.301 105.945 43.287C105.441 42.273 105.189 41.094 105.189 39.75C105.189 38.406 105.441 37.227 105.945 36.213C106.455 35.199 107.178 34.41 108.114 33.846C109.056 33.282 110.175 33 111.471 33C112.767 33 113.883 33.282 114.819 33.846C115.761 34.41 116.484 35.199 116.988 36.213C117.498 37.227 117.753 38.406 117.753 39.75C117.753 41.094 117.498 42.273 116.988 43.287C116.484 44.301 115.761 45.09 114.819 45.654C113.883 46.218 112.767 46.5 111.471 46.5ZM111.471 44.196C112.293 44.208 112.977 44.031 113.523 43.665C114.069 43.299 114.477 42.78 114.747 42.108C115.023 41.436 115.161 40.65 115.161 39.75C115.161 38.85 115.023 38.07 114.747 37.41C114.477 36.75 114.069 36.237 113.523 35.871C112.977 35.505 112.293 35.316 111.471 35.304C110.649 35.292 109.965 35.469 109.419 35.835C108.873 36.201 108.462 36.72 108.186 37.392C107.916 38.064 107.781 38.85 107.781 39.75C107.781 40.65 107.916 41.43 108.186 42.09C108.462 42.75 108.873 43.263 109.419 43.629C109.965 43.995 110.649 44.184 111.471 44.196Z" fill="white"/>
<path d="M96.7069 46.5C95.8909 46.5 95.1139 46.356 94.3759 46.068C93.6379 45.774 92.9839 45.342 92.4139 44.772C91.8499 44.202 91.4029 43.497 91.0729 42.657C90.7489 41.817 90.5869 40.848 90.5869 39.75C90.5869 38.316 90.8599 37.098 91.4059 36.096C91.9579 35.088 92.6959 34.32 93.6199 33.792C94.5499 33.264 95.5789 33 96.7069 33C98.3749 33 99.6859 33.387 100.64 34.161C101.594 34.935 102.233 36.03 102.557 37.446L100.055 37.806C99.8209 37.05 99.4369 36.447 98.9029 35.997C98.3749 35.541 97.6969 35.31 96.8689 35.304C96.0469 35.292 95.3629 35.469 94.8169 35.835C94.2709 36.201 93.8599 36.72 93.5839 37.392C93.3139 38.064 93.1789 38.85 93.1789 39.75C93.1789 40.65 93.3139 41.43 93.5839 42.09C93.8599 42.75 94.2709 43.263 94.8169 43.629C95.3629 43.995 96.0469 44.184 96.8689 44.196C97.4269 44.208 97.9309 44.112 98.3809 43.908C98.8369 43.704 99.2209 43.383 99.5329 42.945C99.8449 42.507 100.067 41.946 100.199 41.262H98.1469V39.372H102.809C102.821 39.45 102.83 39.588 102.836 39.786C102.842 39.984 102.845 40.098 102.845 40.128C102.845 41.37 102.593 42.471 102.089 43.431C101.585 44.391 100.874 45.144 99.9559 45.69C99.0379 46.23 97.9549 46.5 96.7069 46.5Z" fill="white"/>
<path d="M81.9685 46.5C80.6725 46.5 79.5535 46.218 78.6115 45.654C77.6755 45.09 76.9525 44.301 76.4425 43.287C75.9385 42.273 75.6865 41.094 75.6865 39.75C75.6865 38.406 75.9385 37.227 76.4425 36.213C76.9525 35.199 77.6755 34.41 78.6115 33.846C79.5535 33.282 80.6725 33 81.9685 33C83.2645 33 84.3805 33.282 85.3165 33.846C86.2585 34.41 86.9815 35.199 87.4855 36.213C87.9955 37.227 88.2505 38.406 88.2505 39.75C88.2505 41.094 87.9955 42.273 87.4855 43.287C86.9815 44.301 86.2585 45.09 85.3165 45.654C84.3805 46.218 83.2645 46.5 81.9685 46.5ZM81.9685 44.196C82.7905 44.208 83.4745 44.031 84.0205 43.665C84.5665 43.299 84.9745 42.78 85.2445 42.108C85.5205 41.436 85.6585 40.65 85.6585 39.75C85.6585 38.85 85.5205 38.07 85.2445 37.41C84.9745 36.75 84.5665 36.237 84.0205 35.871C83.4745 35.505 82.7905 35.316 81.9685 35.304C81.1465 35.292 80.4625 35.469 79.9165 35.835C79.3705 36.201 78.9595 36.72 78.6835 37.392C78.4135 38.064 78.2785 38.85 78.2785 39.75C78.2785 40.65 78.4135 41.43 78.6835 42.09C78.9595 42.75 79.3705 43.263 79.9165 43.629C80.4625 43.995 81.1465 44.184 81.9685 44.196Z" fill="white"/>
<path d="M65.9404 46.2305V33.2705H68.3884V43.9445H73.9684V46.2305H65.9404Z" fill="white"/>
<path d="M214.536 27.2305V21.9565L210.108 14.2705H212.97L215.778 19.1485L218.586 14.2705H221.448L217.02 21.9565V27.2305H214.536Z" fill="white"/>
<path d="M196.995 27.2305V14.2705H199.479L205.113 22.9105V14.2705H207.597V27.2305H205.113L199.479 18.5905V27.2305H196.995Z" fill="white"/>
<path d="M182.548 27.2305L186.508 14.2705H190.162L194.122 27.2305H191.602L188.074 15.8005H188.542L185.068 27.2305H182.548ZM184.924 24.5305V22.2445H191.764V24.5305H184.924Z" fill="white"/>
<path d="M171.377 27.2305V14.2705H176.849C176.975 14.2705 177.143 14.2765 177.353 14.2885C177.569 14.2945 177.761 14.3125 177.929 14.3425C178.703 14.4625 179.336 14.7175 179.828 15.1075C180.326 15.4975 180.692 15.9895 180.926 16.5835C181.16 17.1715 181.277 17.8285 181.277 18.5545C181.277 19.2805 181.157 19.9405 180.917 20.5345C180.683 21.1225 180.317 21.6115 179.819 22.0015C179.327 22.3915 178.697 22.6465 177.929 22.7665C177.761 22.7905 177.569 22.8085 177.353 22.8205C177.137 22.8325 176.969 22.8385 176.849 22.8385H173.825V27.2305H171.377ZM173.825 20.5525H176.741C176.867 20.5525 177.005 20.5465 177.155 20.5345C177.305 20.5225 177.443 20.4985 177.569 20.4625C177.899 20.3725 178.154 20.2225 178.334 20.0125C178.514 19.7965 178.637 19.5595 178.703 19.3015C178.775 19.0375 178.811 18.7885 178.811 18.5545C178.811 18.3205 178.775 18.0745 178.703 17.8165C178.637 17.5525 178.514 17.3155 178.334 17.1055C178.154 16.8895 177.899 16.7365 177.569 16.6465C177.443 16.6105 177.305 16.5865 177.155 16.5745C177.005 16.5625 176.867 16.5565 176.741 16.5565H173.825V20.5525Z" fill="white"/>
<path d="M154.631 27.2305V14.2705H156.827L161.111 22.8745L165.395 14.2705H167.591V27.2305H165.305V19.4905L161.543 27.2305H160.679L156.917 19.4905V27.2305H154.631Z" fill="white"/>
<path d="M145.292 27.5C143.996 27.5 142.877 27.218 141.935 26.654C140.999 26.09 140.276 25.301 139.766 24.287C139.262 23.273 139.01 22.094 139.01 20.75C139.01 19.406 139.262 18.227 139.766 17.213C140.276 16.199 140.999 15.41 141.935 14.846C142.877 14.282 143.996 14 145.292 14C146.588 14 147.704 14.282 148.64 14.846C149.582 15.41 150.305 16.199 150.809 17.213C151.319 18.227 151.574 19.406 151.574 20.75C151.574 22.094 151.319 23.273 150.809 24.287C150.305 25.301 149.582 26.09 148.64 26.654C147.704 27.218 146.588 27.5 145.292 27.5ZM145.292 25.196C146.114 25.208 146.798 25.031 147.344 24.665C147.89 24.299 148.298 23.78 148.568 23.108C148.844 22.436 148.982 21.65 148.982 20.75C148.982 19.85 148.844 19.07 148.568 18.41C148.298 17.75 147.89 17.237 147.344 16.871C146.798 16.505 146.114 16.316 145.292 16.304C144.47 16.292 143.786 16.469 143.24 16.835C142.694 17.201 142.283 17.72 142.007 18.392C141.737 19.064 141.602 19.85 141.602 20.75C141.602 21.65 141.737 22.43 142.007 23.09C142.283 23.75 142.694 24.263 143.24 24.629C143.786 24.995 144.47 25.184 145.292 25.196Z" fill="white"/>
<path d="M130.602 27.5C129.306 27.5 128.187 27.218 127.245 26.654C126.309 26.09 125.586 25.301 125.076 24.287C124.572 23.273 124.32 22.094 124.32 20.75C124.32 19.406 124.572 18.227 125.076 17.213C125.586 16.199 126.309 15.41 127.245 14.846C128.187 14.282 129.306 14 130.602 14C132.09 14 133.338 14.369 134.346 15.107C135.36 15.845 136.074 16.844 136.488 18.104L134.022 18.788C133.782 18.002 133.377 17.393 132.807 16.961C132.237 16.523 131.502 16.304 130.602 16.304C129.78 16.304 129.093 16.487 128.541 16.853C127.995 17.219 127.584 17.735 127.308 18.401C127.032 19.067 126.894 19.85 126.894 20.75C126.894 21.65 127.032 22.433 127.308 23.099C127.584 23.765 127.995 24.281 128.541 24.647C129.093 25.013 129.78 25.196 130.602 25.196C131.502 25.196 132.237 24.977 132.807 24.539C133.377 24.101 133.782 23.492 134.022 22.712L136.488 23.396C136.074 24.656 135.36 25.655 134.346 26.393C133.338 27.131 132.09 27.5 130.602 27.5Z" fill="white"/>
<path d="M106.858 27.2305V14.2705H112.33C112.456 14.2705 112.624 14.2765 112.834 14.2885C113.05 14.2945 113.242 14.3125 113.41 14.3425C114.184 14.4625 114.817 14.7175 115.309 15.1075C115.807 15.4975 116.173 15.9895 116.407 16.5835C116.641 17.1715 116.758 17.8285 116.758 18.5545C116.758 19.6405 116.488 20.5705 115.948 21.3445C115.408 22.1125 114.562 22.5865 113.41 22.7665L112.33 22.8385H109.306V27.2305H106.858ZM114.166 27.2305L111.61 21.9565L114.13 21.4705L116.938 27.2305H114.166ZM109.306 20.5525H112.222C112.348 20.5525 112.486 20.5465 112.636 20.5345C112.786 20.5225 112.924 20.4985 113.05 20.4625C113.38 20.3725 113.635 20.2225 113.815 20.0125C113.995 19.7965 114.118 19.5595 114.184 19.3015C114.256 19.0375 114.292 18.7885 114.292 18.5545C114.292 18.3205 114.256 18.0745 114.184 17.8165C114.118 17.5525 113.995 17.3155 113.815 17.1055C113.635 16.8895 113.38 16.7365 113.05 16.6465C112.924 16.6105 112.786 16.5865 112.636 16.5745C112.486 16.5625 112.348 16.5565 112.222 16.5565H109.306V20.5525Z" fill="white"/>
<path d="M97.8121 27.5005C96.7681 27.5005 95.8501 27.2905 95.0581 26.8705C94.2661 26.4445 93.6481 25.8475 93.2041 25.0795C92.7601 24.3115 92.5381 23.4085 92.5381 22.3705V14.2885L95.0221 14.2705V22.3525C95.0221 22.7785 95.0941 23.1655 95.2381 23.5135C95.3821 23.8615 95.5801 24.1615 95.8321 24.4135C96.0901 24.6655 96.3871 24.8605 96.7231 24.9985C97.0651 25.1305 97.4281 25.1965 97.8121 25.1965C98.2081 25.1965 98.5741 25.1275 98.9101 24.9895C99.2521 24.8515 99.5491 24.6565 99.8011 24.4045C100.053 24.1525 100.248 23.8525 100.386 23.5045C100.53 23.1565 100.602 22.7725 100.602 22.3525V14.2705H103.086V22.3705C103.086 23.4085 102.864 24.3115 102.42 25.0795C101.976 25.8475 101.358 26.4445 100.566 26.8705C99.7741 27.2905 98.8561 27.5005 97.8121 27.5005Z" fill="white"/>
<path d="M83.199 27.5C81.903 27.5 80.784 27.218 79.842 26.654C78.906 26.09 78.183 25.301 77.673 24.287C77.169 23.273 76.917 22.094 76.917 20.75C76.917 19.406 77.169 18.227 77.673 17.213C78.183 16.199 78.906 15.41 79.842 14.846C80.784 14.282 81.903 14 83.199 14C84.495 14 85.611 14.282 86.547 14.846C87.489 15.41 88.212 16.199 88.716 17.213C89.226 18.227 89.481 19.406 89.481 20.75C89.481 22.094 89.226 23.273 88.716 24.287C88.212 25.301 87.489 26.09 86.547 26.654C85.611 27.218 84.495 27.5 83.199 27.5ZM83.199 25.196C84.021 25.208 84.705 25.031 85.251 24.665C85.797 24.299 86.205 23.78 86.475 23.108C86.751 22.436 86.889 21.65 86.889 20.75C86.889 19.85 86.751 19.07 86.475 18.41C86.205 17.75 85.797 17.237 85.251 16.871C84.705 16.505 84.021 16.316 83.199 16.304C82.377 16.292 81.693 16.469 81.147 16.835C80.601 17.201 80.19 17.72 79.914 18.392C79.644 19.064 79.509 19.85 79.509 20.75C79.509 21.65 79.644 22.43 79.914 23.09C80.19 23.75 80.601 24.263 81.147 24.629C81.693 24.995 82.377 25.184 83.199 25.196Z" fill="white"/>
<path d="M68.928 27.2305V21.9565L64.5 14.2705H67.362L70.17 19.1485L72.978 14.2705H75.84L71.412 21.9565V27.2305H68.928Z" fill="white"/>
</g>
<defs>
<clipPath id="clip0_2019_737">
<rect width="225" height="50" fill="white" transform="translate(0.5)"/>
</clipPath>
</defs>
</svg>
