<svg width="10" height="11" viewBox="0 0 10 11" fill="none" xmlns="http://www.w3.org/2000/svg">
<g clip-path="url(#clip0_4056_402)">
<path d="M5.00305 0.44043C5.51493 1.20284 6.1365 2.31764 6.7337 3.52853C8.00122 3.75277 9.17733 4.00904 10 4.25891C9.4089 5.05336 8.65326 6.00157 7.75747 6.9626C7.922 8.2696 8.03169 9.45486 8.08653 10.4351C7.1298 9.98022 6.12431 9.55737 4.99695 9.00638C3.86959 9.55737 2.86411 9.98022 1.90737 10.4351C1.96222 9.45486 2.07191 8.2696 2.23644 6.9626C1.34674 5.99516 0.591103 5.04695 0 4.25891C0.828763 4.00264 2.00488 3.75277 3.2663 3.52853C3.86959 2.31123 4.48507 1.20284 5.00305 0.44043Z" fill="#2B374B"/>
</g>
<defs>
<clipPath id="clip0_4056_402">
<rect width="10" height="10" fill="white" transform="translate(0 0.44043)"/>
</clipPath>
</defs>
</svg>
